<svg width="470" height="676" viewBox="0 0 470 676" fill="none" xmlns="http://www.w3.org/2000/svg">
<path opacity="0.992" fill-rule="evenodd" clip-rule="evenodd" d="M300.5 398.5C300.5 403.833 300.5 409.167 300.5 414.5C315.023 419.425 329.356 424.925 343.5 431C301.721 447.444 259.721 463.277 217.5 478.5C175.663 463.291 133.997 447.624 92.4999 431.5C110.512 423.503 128.846 416.003 147.5 409C148.471 403.928 148.805 398.762 148.5 393.5C148.667 379.496 148.5 365.496 148 351.5C118.076 363.211 96.0759 354.545 81.9999 325.5C78.7699 316.788 77.2699 307.788 77.4999 298.5C60.4109 293.247 48.5779 282.247 41.9999 265.5C36.7519 249.307 37.5849 233.474 44.4999 218C26.2039 211.574 20.0369 199.074 25.9999 180.5C28.4629 177.035 31.2959 173.869 34.4999 171C33.0689 170.535 31.9029 169.701 30.9999 168.5C30.5049 165.469 30.6709 162.469 31.4999 159.5C27.8599 158.85 24.5269 157.35 21.4999 155C18.9079 151.738 15.7409 149.238 11.9999 147.5C11.7979 145.744 11.2979 144.078 10.4999 142.5C7.25392 140.961 4.08792 139.294 0.999916 137.5C0.103916 134.975 0.603916 132.808 2.49992 131C5.53092 130.505 8.53092 130.671 11.4999 131.5C11.3429 130.127 11.5099 128.793 11.9999 127.5C17.7189 121.058 24.8849 118.058 33.4999 118.5C32.5419 109.289 36.5419 105.455 45.4999 107C47.2859 107.785 48.7859 108.951 49.9999 110.5C50.3329 105.5 50.6669 100.5 50.9999 95.5C53.7789 88.951 58.6119 86.784 65.4999 89C68.9389 91.139 72.1059 93.639 74.9999 96.5C75.3329 93.5 76.9999 91.833 79.9999 91.5C80.6669 90.167 80.6669 88.833 79.9999 87.5C71.1739 78.444 71.3409 69.611 80.4999 61C84.2199 59.356 88.0529 58.19 91.9999 57.5C91.4469 44.384 97.6129 38.55 110.5 40C113.102 40.883 115.269 42.383 117 44.5C127.382 36.313 135.049 38.313 140 50.5C140.784 53.76 140.617 56.927 139.5 60C145.709 59.358 150.542 61.525 154 66.5C155.472 57.379 160.305 50.879 168.5 47C178.968 44.781 188.968 46.114 198.5 51C200 52.5 201.5 54 203 55.5C206.318 48.534 210.651 47.868 216 53.5C216.973 55.392 217.64 57.392 218 59.5C220.789 53.385 224.955 48.552 230.5 45C239.829 43.777 249.162 42.444 258.5 41C259.333 40.167 260.167 39.333 261 38.5C260.999 29.133 263.332 20.467 268 12.5C272.928 7.78898 278.428 6.78898 284.5 9.49998C293.895 -2.16302 303.895 -2.49702 314.5 8.49998C320.868 2.92898 327.868 2.09498 335.5 5.99998C339.491 9.97098 340.824 14.638 339.5 20C353.653 24.312 356.319 32.479 347.5 44.5C345.869 46.297 343.869 47.464 341.5 48C342.667 49.833 343.833 51.667 345 53.5C346.833 51 348.667 48.5 350.5 46C354.202 44.607 356.202 45.774 356.5 49.5C352.496 59.846 348.496 70.179 344.5 80.5C357.722 79.78 366.722 85.613 371.5 98C372.796 102.071 373.629 106.238 374 110.5C376.418 108.32 379.084 107.987 382 109.5C383.543 98.624 389.71 92.457 400.5 91C400.379 83.736 403.712 78.402 410.5 75C420.875 73.69 428.208 77.857 432.5 87.5C444.546 82.358 452.213 86.024 455.5 98.5C454.988 100.884 454.321 103.217 453.5 105.5C464.968 113.546 465.301 122.046 454.5 131C451.833 132 449.167 133 446.5 134C449.621 144.091 446.288 151.091 436.5 155C432.855 155.719 429.188 156.219 425.5 156.5C424.424 160.745 421.758 163.578 417.5 165C424.768 169.392 429.768 175.559 432.5 183.5C442.105 186.272 447.605 192.605 449 202.5C455.916 208.756 458.083 216.423 455.5 225.5C466.015 226.828 470.515 232.828 469 243.5C467.045 247.618 464.212 250.952 460.5 253.5C464.653 263.226 461.653 269.393 451.5 272C446.891 273.074 442.724 272.24 439 269.5C437.704 273.767 435.204 277.1 431.5 279.5C430.081 303.589 417.414 314.256 393.5 311.5C389.699 326.807 380.366 337.307 365.5 343C355.307 345.627 345.807 344.127 337 338.5C329.666 354.002 317.832 364.335 301.5 369.5C300.502 379.144 300.168 388.81 300.5 398.5Z" fill="#FEFEFD"/>
<path fill-rule="evenodd" clip-rule="evenodd" d="M334.5 27.5C342.403 27.644 344.236 31.311 340 38.5C336.211 42.768 335.211 42.435 337 37.5C337.667 34.833 337.667 32.167 337 29.5C336.292 28.619 335.458 27.953 334.5 27.5Z" fill="#E1615D"/>
<path fill-rule="evenodd" clip-rule="evenodd" d="M274.5 18.5C275.552 18.351 276.552 18.517 277.5 19C276.194 23.313 273.694 26.813 270 29.5C266.619 38.465 269.785 42.631 279.5 42C272.296 46.067 267.629 44.067 265.5 36C266.367 31.1 268.867 27.266 273 24.5C273.315 22.414 273.815 20.414 274.5 18.5Z" fill="#E1615E"/>
<path fill-rule="evenodd" clip-rule="evenodd" d="M310.5 31.5C312.417 34.084 314.751 36.418 317.5 38.5C318.014 40.512 318.18 42.512 318 44.5C316.989 45.337 315.822 45.67 314.5 45.5C315 41.836 313.833 38.836 311 36.5C308.443 40.446 306.277 44.613 304.5 49C304.748 50.749 305.748 51.582 307.5 51.5C313.41 64.927 309.077 70.594 294.5 68.5C293.702 68.957 293.369 69.624 293.5 70.5C289.897 71.836 289.564 71.002 292.5 68C287.065 64.631 284.732 59.798 285.5 53.5C286.833 53.5 288.167 53.5 289.5 53.5C289.198 56.059 289.532 58.393 290.5 60.5C291.212 61.739 292.212 62.239 293.5 62C295.879 58.744 297.879 55.244 299.5 51.5C293.101 46.549 291.934 40.549 296 33.5C300.469 30.362 305.302 29.695 310.5 31.5Z" fill="#FDF2F0"/>
<path fill-rule="evenodd" clip-rule="evenodd" d="M310.5 31.5C311.251 30.427 312.251 30.26 313.5 31C314.656 33.64 315.989 36.14 317.5 38.5C314.751 36.418 312.417 34.084 310.5 31.5Z" fill="#F3C2B8"/>
<path fill-rule="evenodd" clip-rule="evenodd" d="M301.5 36.5C302.134 35.053 303.301 34.387 305 34.5C306.662 34.388 307.829 35.054 308.5 36.5C306.754 40.327 304.754 43.993 302.5 47.5C298.542 45.117 297.542 41.784 299.5 37.5C299.957 36.702 300.624 36.369 301.5 36.5Z" fill="#F3C2B8"/>
<path fill-rule="evenodd" clip-rule="evenodd" d="M301.5 36.5001C303.288 36.2151 304.955 36.5481 306.5 37.5001C305.253 40.3291 303.753 42.9951 302 45.5001C298.93 42.7261 298.763 39.7261 301.5 36.5001Z" fill="#FEFCFC"/>
<path fill-rule="evenodd" clip-rule="evenodd" d="M317.5 38.5C319.385 40.795 319.885 43.462 319 46.5C316.721 47.59 314.554 47.256 312.5 45.5C313.789 42.849 313.289 40.516 311 38.5C309.294 42.079 307.461 45.579 305.5 49C306.381 49.708 307.047 50.542 307.5 51.5C305.748 51.582 304.748 50.749 304.5 49C306.277 44.613 308.443 40.446 311 36.5C313.833 38.836 315 41.836 314.5 45.5C315.822 45.67 316.989 45.337 318 44.5C318.18 42.512 318.014 40.512 317.5 38.5Z" fill="#F3C3BA"/>
<path fill-rule="evenodd" clip-rule="evenodd" d="M124.5 49.5C131.632 49.743 134.465 53.41 133 60.5C131.15 54.984 127.317 52.15 121.5 52C122.571 51.148 123.571 50.315 124.5 49.5Z" fill="#DF5855"/>
<path fill-rule="evenodd" clip-rule="evenodd" d="M334.5 56.5C342.516 55.367 345.682 59.034 344 67.5C342.269 69.617 340.102 71.117 337.5 72C338.854 75.209 338.687 78.376 337 81.5C334.38 82.923 331.88 82.757 329.5 81C335.115 79.771 336.782 76.438 334.5 71C337.678 69.163 339.678 66.496 340.5 63C340.385 59.053 338.385 56.886 334.5 56.5Z" fill="#DF5A56"/>
<path fill-rule="evenodd" clip-rule="evenodd" d="M101.5 113.5C100.848 114.449 100.514 115.615 100.5 117C101.575 119.51 102.575 122.01 103.5 124.5C101.833 124.5 100.167 124.5 98.5 124.5C98.249 122.83 97.582 121.33 96.5 120C97.075 117.859 97.408 115.359 97.5 112.5C98.879 98.574 104.879 87.074 115.5 78C121.01 73.724 126.51 73.558 132 77.5C137.841 71.249 144.007 70.916 150.5 76.5C152.5 75.833 154.5 75.167 156.5 74.5C158.296 67.097 162.962 64.597 170.5 67C172.943 68.959 174.61 68.292 175.5 65C184.117 59.837 193.117 59.17 202.5 63C205.845 66.023 208.178 69.689 209.5 74C224.746 74.364 235.912 81.198 243 94.5C245 100.833 245 107.167 243 113.5C241.89 115.037 240.39 115.703 238.5 115.5C238.264 112.086 237.598 108.753 236.5 105.5C235.457 108.421 233.79 110.921 231.5 113C230.833 113.667 230.167 113.667 229.5 113C228.845 111.513 227.845 110.347 226.5 109.5C224.979 112.054 223.646 114.721 222.5 117.5C221.554 117.987 220.554 118.32 219.5 118.5C216.814 114.967 213.481 111.967 209.5 109.5C207.234 108.686 204.9 108.186 202.5 108C204.241 106.38 206.075 104.88 208 103.5C208.167 102.667 208.333 101.833 208.5 101C207.116 97.591 205.116 94.591 202.5 92C203.57 89.194 204.903 86.527 206.5 84C202.798 84.176 199.465 85.51 196.5 88C193.984 90.683 191.317 93.183 188.5 95.5C186.833 94.167 185.167 92.833 183.5 91.5C181.833 93.5 180.167 95.5 178.5 97.5C177.167 96.167 175.833 94.833 174.5 93.5C173.52 96.086 173.187 98.753 173.5 101.5C172.325 101.719 171.325 101.386 170.5 100.5C169.917 98.998 169.084 97.665 168 96.5C166.678 99.888 164.845 100.221 162.5 97.5C159.674 98.871 158.174 97.871 158 94.5C157.632 95.91 156.799 96.91 155.5 97.5C154.757 96.092 153.923 94.759 153 93.5C151.587 95.414 149.753 96.747 147.5 97.5C146.808 96.975 146.308 96.308 146 95.5C143.277 98.557 140.944 101.89 139 105.5C138.667 103.5 138.333 101.5 138 99.5C135.984 101.684 133.817 103.684 131.5 105.5C130.851 103.376 130.017 101.376 129 99.5C126.74 103.525 125.24 107.858 124.5 112.5C123.749 111.624 123.249 110.624 123 109.5C122 110.833 121 110.833 120 109.5C120.454 122.309 118.454 122.642 114 110.5C113.828 106.129 113.328 101.796 112.5 97.5C110.639 98.528 109.305 100.028 108.5 102C107.517 102.591 106.85 102.257 106.5 101C108.157 96.014 110.824 91.68 114.5 88C109.089 90.421 105.256 94.588 103 100.5C100.737 104.72 100.237 109.053 101.5 113.5Z" fill="#F6C2B6"/>
<path fill-rule="evenodd" clip-rule="evenodd" d="M302.5 52.5C303.812 53.145 304.812 54.145 305.5 55.5C304.431 55.36 303.264 55.36 302 55.5C300.5 58.5 299 61.5 297.5 64.5C299.078 65.298 300.744 65.798 302.5 66C300.098 66.814 297.765 66.647 295.5 65.5C297.591 60.98 299.925 56.647 302.5 52.5Z" fill="#F3C0B6"/>
<path fill-rule="evenodd" clip-rule="evenodd" d="M290.5 60.5C289.532 58.393 289.198 56.059 289.5 53.5C288.167 53.5 286.833 53.5 285.5 53.5C284.732 59.798 287.065 64.631 292.5 68C289.564 71.002 289.897 71.836 293.5 70.5C293.316 73.173 292.149 73.84 290 72.5C289.405 71.101 289.572 69.768 290.5 68.5C288.476 66.31 286.643 63.977 285 61.5C284.333 58.5 284.333 55.5 285 52.5C287.027 52.014 289.193 52.014 291.5 52.5C290.908 55.127 290.575 57.794 290.5 60.5Z" fill="#F3C1B7"/>
<path fill-rule="evenodd" clip-rule="evenodd" d="M307.5 51.5C314.154 57.168 314.154 63.001 307.5 69C303.068 71.776 298.401 72.276 293.5 70.5C293.369 69.624 293.702 68.957 294.5 68.5C309.077 70.594 313.41 64.927 307.5 51.5Z" fill="#F4C7BF"/>
<path fill-rule="evenodd" clip-rule="evenodd" d="M99.5 62.5C105.396 62.848 105.729 64.015 100.5 66C94.636 65.338 89.803 67.171 86 71.5C84.639 76.274 86.139 79.774 90.5 82C86.82 82.682 84.32 81.182 83 77.5C81.011 71.708 82.845 67.875 88.5 66C91.882 65.824 95.215 65.324 98.5 64.5C98.863 63.817 99.196 63.15 99.5 62.5Z" fill="#E05D5A"/>
<path fill-rule="evenodd" clip-rule="evenodd" d="M294.5 94.5C300.034 93.376 304.367 95.043 307.5 99.5C310.773 98.415 314.106 98.248 317.5 99C319.155 100.444 319.822 102.278 319.5 104.5C321.924 104.808 324.257 104.474 326.5 103.5C327.337 101.495 328.837 100.495 331 100.5C334.359 100.783 337.193 102.116 339.5 104.5C348.346 101.74 355.846 103.74 362 110.5C362.176 113.882 362.676 117.215 363.5 120.5C375.023 126.545 379.189 135.879 376 148.5C374.752 151.579 372.919 154.246 370.5 156.5C368.902 157.485 367.235 157.651 365.5 157C366.967 154.599 367.801 152.099 368 149.5C366.117 152.024 363.617 153.358 360.5 153.5C360.762 152.022 360.429 150.689 359.5 149.5C357.684 150.815 356.017 152.315 354.5 154C353.5 154.667 352.5 154.667 351.5 154C349.714 150.787 348.548 147.287 348 143.5C341.984 141.911 342.15 140.744 348.5 140C349.878 138.287 351.545 136.953 353.5 136C351.697 134.738 350.364 133.071 349.5 131C351.208 128.957 353.208 127.29 355.5 126C349.895 125.049 344.562 125.882 339.5 128.5C338.852 126.851 337.852 125.518 336.5 124.5C334.827 126.086 332.827 126.753 330.5 126.5C330.649 125.448 330.483 124.448 330 123.5C328.907 125.349 327.574 127.016 326 128.5C324.883 127.051 324.216 125.384 324 123.5C323.439 124.022 322.772 124.355 322 124.5C320.018 123.279 318.518 121.612 317.5 119.5C316.914 119.709 316.414 120.043 316 120.5C315.667 119.167 315.333 117.833 315 116.5C312.978 117.991 311.312 117.658 310 115.5C306.728 117.108 303.728 119.108 301 121.5C300.667 119.953 301.167 118.62 302.5 117.5C300.108 116.792 297.941 117.458 296 119.5C295.464 117.433 295.964 115.599 297.5 114C297.167 113.833 296.833 113.667 296.5 113.5C293.478 115.688 290.978 118.355 289 121.5C288.333 120.167 287.333 119.167 286 118.5C284.478 120.741 283.145 123.074 282 125.5C280.705 118.93 282.205 113.097 286.5 108C284.744 107.86 283.078 108.36 281.5 109.5C281.167 109.167 280.833 108.833 280.5 108.5C283.109 105.856 286.109 103.689 289.5 102C282.787 103.29 277.287 106.79 273 112.5C270.268 116.241 267.934 120.241 266 124.5C265.719 120.011 267.052 116.011 270 112.5C276.937 104.636 285.104 98.636 294.5 94.5Z" fill="#F6C3B6"/>
<path fill-rule="evenodd" clip-rule="evenodd" d="M404.5 91.5C408.88 92.099 409.214 93.099 405.5 94.5C404.614 95.325 404.281 96.325 404.5 97.5C399.404 97.4 395.237 99.4 392 103.5C391.298 109.814 394.132 113.648 400.5 115C392 115.833 388.167 112 389 103.5C391.84 98.833 396.006 96.5 401.5 96.5C401.31 94.041 402.31 92.374 404.5 91.5Z" fill="#E26460"/>
<path fill-rule="evenodd" clip-rule="evenodd" d="M450.5 112.5C457.644 118.787 456.644 123.787 447.5 127.5C447.167 127.333 446.833 127.167 446.5 127C451.36 123.162 452.693 118.328 450.5 112.5Z" fill="#DF5855"/>
<path fill-rule="evenodd" clip-rule="evenodd" d="M405.5 124.5C407.127 122.37 408.96 120.37 411 118.5C412.457 114.116 414.29 109.949 416.5 106C421.485 103.087 426.818 101.754 432.5 102C427.246 102.917 422.246 104.584 417.5 107C415.405 109.29 414.738 111.79 415.5 114.5C421.746 107.917 429.413 104.751 438.5 105C433.116 106.542 427.783 108.209 422.5 110C416.941 115.066 411.275 119.9 405.5 124.5Z" fill="#EEA399"/>
<path fill-rule="evenodd" clip-rule="evenodd" d="M48.4999 123.5C51.5989 123.092 53.9329 124.259 55.4999 127C49.4759 126.195 46.8089 129.028 47.4999 135.5C40.9089 135.594 38.0759 138.927 38.9999 145.5C40.1669 146.667 41.3329 147.833 42.4999 149C36.1899 147.92 33.6899 144.087 34.9999 137.5C37.1499 134.037 40.3159 132.704 44.4999 133.5C44.1859 129.468 45.5189 126.135 48.4999 123.5Z" fill="#E05B58"/>
<path fill-rule="evenodd" clip-rule="evenodd" d="M185.5 107.5C187.225 107.843 187.725 108.843 187 110.5C183.564 112.616 180.73 115.282 178.5 118.5C180.358 120.697 182.692 122.031 185.5 122.5C185.281 121.325 185.614 120.325 186.5 119.5C187.931 119.977 189.264 120.643 190.5 121.5C189.41 122.609 189.41 123.609 190.5 124.5C192.432 125.52 194.432 125.687 196.5 125C196.744 120.488 196.744 115.988 196.5 111.5C199.099 114.793 200.433 118.627 200.5 123C200.577 125.051 200.077 126.884 199 128.5C198.667 127.5 198.333 126.5 198 125.5C194.853 126.278 191.687 127.111 188.5 128C190.808 130.907 193.475 131.241 196.5 129C195.167 128.667 193.833 128.333 192.5 128C200.309 129.178 200.309 131.011 192.5 133.5C189.162 132.835 186.495 131.168 184.5 128.5C177.501 129.671 174.001 126.671 174 119.5C175.333 117.5 176.667 115.5 178 113.5C180.688 111.636 183.188 109.636 185.5 107.5Z" fill="#F7D5CE"/>
<path fill-rule="evenodd" clip-rule="evenodd" d="M101.5 113.5C102.423 112.697 103.423 112.53 104.5 113C106.667 118.508 110.333 122.675 115.5 125.5C109.52 127.645 103.52 130.145 97.5 133C91.332 134.354 85.666 133.354 80.5 130C75.932 124.327 71.265 118.827 66.5 113.5C72.345 112.541 77.679 110.375 82.5 107C87.104 105.448 90.437 106.782 92.5 111C96.19 111.424 96.357 112.258 93 113.5C91.38 111.274 89.214 109.94 86.5 109.5C81.751 110.71 77.417 112.71 73.5 115.5C81.689 132.26 93.356 135.093 108.5 124C105.774 120.701 103.441 117.201 101.5 113.5Z" fill="#F8D9D2"/>
<path fill-rule="evenodd" clip-rule="evenodd" d="M97.5 112.5C97.408 115.359 97.075 117.859 96.5 120C97.582 121.33 98.249 122.83 98.5 124.5C90.627 125.038 83.961 122.538 78.5 117C79.958 115.051 81.958 114.218 84.5 114.5C88.382 115.769 92.382 116.435 96.5 116.5C96.232 114.901 96.566 113.568 97.5 112.5Z" fill="#F9DED8"/>
<path fill-rule="evenodd" clip-rule="evenodd" d="M405.5 124.5C401.792 130.542 396.459 134.209 389.5 135.5C395.378 132.622 400.711 128.955 405.5 124.5Z" fill="#EDA096"/>
<path fill-rule="evenodd" clip-rule="evenodd" d="M410.5 143.5C409.387 142.054 409.22 140.387 410 138.5C412.305 134.696 414.805 131.03 417.5 127.5C417.333 127.167 417.167 126.833 417 126.5C415.247 127.627 413.413 128.627 411.5 129.5C410.304 129.154 410.304 128.654 411.5 128C418.567 125.594 423.734 121.094 427 114.5C427.674 115.578 428.674 116.245 430 116.5C433.359 115.94 436.692 115.274 440 114.5C440.5 114.833 441 115.167 441.5 115.5C432.791 115.782 425.624 119.116 420 125.5C417.333 129.5 414.667 133.5 412 137.5C410.872 139.345 410.372 141.345 410.5 143.5Z" fill="#EDA095"/>
<path fill-rule="evenodd" clip-rule="evenodd" d="M146.5 132.5C131.01 128.487 123.843 134.487 125 150.5C121.435 138.294 125.935 131.294 138.5 129.5C141.826 129.073 144.492 130.073 146.5 132.5Z" fill="#EFADA3"/>
<path fill-rule="evenodd" clip-rule="evenodd" d="M431.5 133.5C431.897 132.475 432.563 132.308 433.5 133C438.833 138.333 438.833 143.667 433.5 149C431.432 149.687 429.432 149.52 427.5 148.5C426.194 149.912 425.36 151.579 425 153.5C421.744 157.462 418.577 157.462 415.5 153.5C420.742 153.953 423.742 151.286 424.5 145.5C430.093 146.549 433.426 144.383 434.5 139C434.387 136.601 433.387 134.768 431.5 133.5Z" fill="#E05B57"/>
<path fill-rule="evenodd" clip-rule="evenodd" d="M142.5 135.5C144.339 136.582 146.339 137.415 148.5 138C147.107 139.171 146.273 140.671 146 142.5C145.333 141.833 144.667 141.167 144 140.5C143.107 141.711 142.274 141.711 141.5 140.5C142.167 139.833 142.833 139.167 143.5 138.5C142.873 137.583 142.539 136.583 142.5 135.5Z" fill="#EC9B8F"/>
<path fill-rule="evenodd" clip-rule="evenodd" d="M399.5 152.5C401.947 146.292 403.781 139.959 405 133.5C399.119 140.232 391.619 142.732 382.5 141C381.027 140.29 380.36 139.124 380.5 137.5C383.692 137.595 386.692 136.929 389.5 135.5C388.086 137.054 386.419 138.388 384.5 139.5C388.547 138.814 392.714 138.814 397 139.5C399.145 137.355 401.312 135.188 403.5 133C405.055 131.711 406.721 131.044 408.5 131C406.428 138.633 403.428 145.8 399.5 152.5Z" fill="#EEA398"/>
<path fill-rule="evenodd" clip-rule="evenodd" d="M169.5 132.5C173.811 134.656 178.145 136.822 182.5 139C186.366 139.502 190.033 140.502 193.5 142C191.326 143.797 188.993 143.964 186.5 142.5C183.786 145.215 180.786 147.549 177.5 149.5C176.914 149.291 176.414 148.957 176 148.5C175.824 145.118 175.324 141.785 174.5 138.5C171.467 137.518 169.8 135.518 169.5 132.5Z" fill="#F7D6CF"/>
<path fill-rule="evenodd" clip-rule="evenodd" d="M134.5 137.5C135.552 137.351 136.552 137.517 137.5 138C138.116 140.179 139.283 142.012 141 143.5C141.623 148.344 139.623 149.678 135 147.5C134.694 145.094 133.861 142.927 132.5 141C132.978 139.697 133.645 138.531 134.5 137.5Z" fill="#EC9A8E"/>
<path fill-rule="evenodd" clip-rule="evenodd" d="M134.5 139.5C137.957 139.667 138.29 140.667 135.5 142.5C134.614 141.675 134.281 140.675 134.5 139.5Z" fill="#F9DCD8"/>
<path fill-rule="evenodd" clip-rule="evenodd" d="M146.5 132.5C148.017 132.511 149.184 133.177 150 134.5C153.608 139.141 154.274 144.141 152 149.5C152.629 142.938 150.795 137.271 146.5 132.5Z" fill="#F2BAB2"/>
<path fill-rule="evenodd" clip-rule="evenodd" d="M136.5 143.5C137.5 143.5 138.5 143.5 139.5 143.5C139.5 144.5 139.5 145.5 139.5 146.5C138.5 146.5 137.5 146.5 136.5 146.5C136.5 145.5 136.5 144.5 136.5 143.5Z" fill="#FDF6F5"/>
<path fill-rule="evenodd" clip-rule="evenodd" d="M225.5 136.5C226.5 136.5 227.5 136.5 228.5 136.5C228.111 141.504 227.611 146.504 227 151.5C226.428 155.142 224.928 158.309 222.5 161C222.833 161.5 223.167 162 223.5 162.5C224.167 161.5 224.833 160.5 225.5 159.5C226.782 161.179 227.782 163.013 228.5 165C232.449 166.184 236.449 166.518 240.5 166C243.23 162.541 243.896 162.874 242.5 167C243.448 167.483 244.448 167.649 245.5 167.5C243.375 159.17 244.208 151.17 248 143.5C248.893 142.289 249.726 142.289 250.5 143.5C248.865 147.571 247.532 151.738 246.5 156C248.952 166.654 247.286 176.487 241.5 185.5C241.167 185 240.833 184.5 240.5 184C242.046 180.649 243.046 177.149 243.5 173.5C240.14 173.616 236.807 173.949 233.5 174.5C233.839 179.535 234.506 184.535 235.5 189.5C235.167 190.5 234.833 191.5 234.5 192.5C232.631 185.5 230.798 178.5 229 171.5C226.087 168.627 222.587 167.294 218.5 167.5C218.331 176.669 220.664 185.169 225.5 193C225.15 194.257 224.483 194.591 223.5 194C217.599 185.24 215.433 175.74 217 165.5C219.084 161.664 221.417 157.997 224 154.5C225.239 148.565 225.739 142.565 225.5 136.5Z" fill="#F5CAC0"/>
<path fill-rule="evenodd" clip-rule="evenodd" d="M127.5 141.5C128.496 141.414 129.329 141.748 130 142.5C131.914 145.298 132.914 148.298 133 151.5C131.257 149.679 129.757 147.679 128.5 145.5C127.914 145.709 127.414 146.043 127 146.5C126.616 144.803 126.782 143.137 127.5 141.5Z" fill="#ED9E92"/>
<path fill-rule="evenodd" clip-rule="evenodd" d="M410.5 143.5C411.573 144.251 411.74 145.251 411 146.5C409.259 147.758 407.426 148.758 405.5 149.5C407.495 147.696 409.162 145.696 410.5 143.5Z" fill="#EEA59B"/>
<path fill-rule="evenodd" clip-rule="evenodd" d="M235.5 147.5C236.5 147.5 237.5 147.5 238.5 147.5C235.562 166.039 234.562 166.039 235.5 147.5Z" fill="#F4C8BE"/>
<path fill-rule="evenodd" clip-rule="evenodd" d="M405.5 149.5C404.397 154.373 401.397 156.873 396.5 157C396.043 156.586 395.709 156.086 395.5 155.5C396.852 154.476 398.185 153.476 399.5 152.5C399.369 153.376 399.702 154.043 400.5 154.5C402.401 152.994 404.068 151.327 405.5 149.5Z" fill="#EEA197"/>
<path fill-rule="evenodd" clip-rule="evenodd" d="M145.5 156.5C146.793 154.704 148.293 153.037 150 151.5C149.823 154.186 148.323 155.852 145.5 156.5Z" fill="#EFABA1"/>
<path fill-rule="evenodd" clip-rule="evenodd" d="M145.5 156.5C139.11 160.752 133.11 160.086 127.5 154.5C127.833 154.167 128.167 153.833 128.5 153.5C133.523 157.619 139.19 158.619 145.5 156.5Z" fill="#F2BBB2"/>
<path fill-rule="evenodd" clip-rule="evenodd" d="M290.5 158.5C301.05 157.89 307.383 162.723 309.5 173C309.696 179.129 307.029 183.463 301.5 186C296.783 186.476 292.117 186.476 287.5 186C287.937 188.217 287.937 190.551 287.5 193C285.765 193.651 284.098 193.485 282.5 192.5C281.125 195.729 278.792 196.896 275.5 196C273.972 193.119 274.638 190.786 277.5 189C273.657 186.462 273.657 184.295 277.5 182.5C279.557 184.531 281.39 184.531 283 182.5C281.156 178.088 280.49 173.421 281 168.5C283.022 163.98 286.189 160.647 290.5 158.5Z" fill="#F6CDC3"/>
<path fill-rule="evenodd" clip-rule="evenodd" d="M57.5 146.5C66.711 145.542 70.545 149.542 69 158.5C67.465 160.674 65.632 162.507 63.5 164C63.735 164.873 64.069 165.707 64.5 166.5C71.963 168.471 74.463 173.138 72 180.5C66.327 183.735 66.494 186.902 72.5 190C76.816 190.996 81.149 191.83 85.5 192.5C85.764 182.136 90.098 173.969 98.5 168C102.519 165.84 106.353 166.006 110 168.5C114.073 164.381 117.74 164.715 121 169.5C122.356 168.62 123.856 168.286 125.5 168.5C125.418 165.415 126.918 163.748 130 163.5C131.984 163.741 133.817 164.408 135.5 165.5C140.835 162.101 146.501 161.601 152.5 164C155.428 165.918 157.094 168.585 157.5 172C172.72 174.973 178.387 183.806 174.5 198.5C173.675 199.386 172.675 199.719 171.5 199.5C171.662 197.473 171.495 195.473 171 193.5C169.676 197.597 167.51 198.264 164.5 195.5C163.997 197.744 162.663 199.078 160.5 199.5C158.22 197.468 155.887 195.301 153.5 193C152.5 192.667 151.5 192.333 150.5 192C154.951 189.12 155.285 185.953 151.5 182.5C152.624 181.086 153.624 179.586 154.5 178C154 177.833 153.5 177.667 153 177.5C149.124 178.884 145.624 180.884 142.5 183.5C141.667 182.5 140.833 181.5 140 180.5C138.527 183.741 136.693 184.074 134.5 181.5C133.833 183.167 133.167 184.833 132.5 186.5C131.655 184.238 130.322 183.571 128.5 184.5C126.566 184.099 125.066 183.099 124 181.5C122.284 182.552 121.284 181.886 121 179.5C119.921 181.394 118.587 181.727 117 180.5C114.957 182.208 113.29 184.208 112 186.5C111.667 185.167 111.333 183.833 111 182.5C108.247 186.735 106.58 186.401 106 181.5C104.725 183.717 103.725 186.051 103 188.5C102.667 187.833 102.333 187.167 102 186.5C101.333 187.833 100.667 187.833 100 186.5C99.667 188.833 99.333 191.167 99 193.5C97.956 192.377 97.29 191.044 97 189.5C96.667 186.167 96.333 182.833 96 179.5C95.035 181.26 93.868 181.594 92.5 180.5C93.253 178.247 94.586 176.413 96.5 175C96.167 174.833 95.833 174.667 95.5 174.5C89.484 179.522 87.151 185.855 88.5 193.5C91.729 194.875 92.896 197.208 92 200.5C88.927 201.617 85.76 201.784 82.5 201C77.299 197.873 72.299 194.539 67.5 191C66.373 189.247 65.373 187.413 64.5 185.5C54.494 181.889 52.994 176.223 60 168.5C60.743 166.559 60.576 164.726 59.5 163C53.036 161.244 50.87 157.077 53 150.5C54.397 148.93 55.897 147.596 57.5 146.5Z" fill="#F6C4B8"/>
<path fill-rule="evenodd" clip-rule="evenodd" d="M58.5 148.5C66.106 148.891 68.44 152.391 65.5 159C59.945 161.867 56.279 160.367 54.5 154.5C55.432 152.235 56.765 150.235 58.5 148.5Z" fill="#FEFCFB"/>
<path fill-rule="evenodd" clip-rule="evenodd" d="M289.5 161.5C293.375 161.085 297.042 161.585 300.5 163C298.366 163.127 296.199 162.961 294 162.5C286.315 163.527 283.315 167.86 285 175.5C288.145 180.997 292.979 183.83 299.5 184C295.026 184.575 290.693 184.075 286.5 182.5C286.392 180.217 285.559 178.217 284 176.5C282.087 169.97 283.92 164.97 289.5 161.5Z" fill="#FBEDE9"/>
<path fill-rule="evenodd" clip-rule="evenodd" d="M291.5 164.5C302.75 165.181 305.75 170.347 300.5 180C291.488 181.968 286.988 178.468 287 169.5C288.025 167.313 289.525 165.646 291.5 164.5Z" fill="#FEFDFC"/>
<path fill-rule="evenodd" clip-rule="evenodd" d="M343.5 166.5C346.116 167.48 348.449 168.98 350.5 171C353.817 171.498 357.15 171.665 360.5 171.5C360.33 172.822 360.663 173.989 361.5 175C375.229 180.765 385.395 190.265 392 203.5C394.035 216.428 388.535 221.594 375.5 219C372.333 217.167 369.833 214.667 368 211.5C363.392 197.907 354.892 187.74 342.5 181C343.563 179.812 344.897 179.312 346.5 179.5C346.657 178.127 346.49 176.793 346 175.5C339.911 173.749 339.078 170.749 343.5 166.5Z" fill="#F5C8BE"/>
<path fill-rule="evenodd" clip-rule="evenodd" d="M226.5 167.5C226.56 166.957 226.893 166.624 227.5 166.5C233.081 168.153 238.747 169.486 244.5 170.5C240.857 171.312 237.191 171.979 233.5 172.5C231.374 170.643 229.041 168.976 226.5 167.5Z" fill="#FEFCFC"/>
<path fill-rule="evenodd" clip-rule="evenodd" d="M60.5001 170.5C67.3271 169.174 70.4941 171.84 70.0001 178.5C66.6101 182.032 62.9431 182.366 59.0001 179.5C58.0681 176.177 58.5681 173.177 60.5001 170.5Z" fill="#FEFDFD"/>
<path fill-rule="evenodd" clip-rule="evenodd" d="M358.5 177.5C370.618 181.443 379.951 188.943 386.5 200C386.404 205.001 386.404 210.001 386.5 215C381.034 217.548 376.2 216.714 372 212.5C369.436 202.367 364.103 194.034 356 187.5C355.333 184.833 355.333 182.167 356 179.5C356.995 178.934 357.828 178.267 358.5 177.5Z" fill="#FEFDFD"/>
<path fill-rule="evenodd" clip-rule="evenodd" d="M405.5 182.5C408.867 190.038 414.2 195.871 421.5 200C420.874 200.75 420.374 201.584 420 202.5C412.274 197.939 407.441 191.272 405.5 182.5Z" fill="#EEA79A"/>
<path fill-rule="evenodd" clip-rule="evenodd" d="M78.5 195.5C82.015 194.711 85.349 195.544 88.5 198C84.908 198.304 81.574 197.471 78.5 195.5Z" fill="#FDF4F2"/>
<path fill-rule="evenodd" clip-rule="evenodd" d="M420.5 213.5C431.839 212.363 435.673 217.363 432 228.5C431.626 229.416 431.126 230.25 430.5 231C433.217 233.65 433.051 236.15 430 238.5C428.339 234.461 428.672 230.794 431 227.5C432.225 221.268 429.891 217.268 424 215.5C421.077 215.795 418.743 217.129 417 219.5C417.357 217.13 418.524 215.13 420.5 213.5Z" fill="#E05A57"/>
<path fill-rule="evenodd" clip-rule="evenodd" d="M136.5 214.5C144.61 213.732 151.61 216.065 157.5 221.5C156.167 223.5 154.5 225.167 152.5 226.5C147.466 222.744 141.8 221.578 135.5 223C127.08 227.446 124.246 234.28 127 243.5C129.288 250.406 134.122 254.073 141.5 254.5C145.56 253.89 149.394 252.556 153 250.5C158.014 252.311 158.514 254.811 154.5 258C137.437 265.651 125.604 260.818 119 243.5C116.676 228.802 122.509 219.136 136.5 214.5Z" fill="#DE5350"/>
<path fill-rule="evenodd" clip-rule="evenodd" d="M178.5 214.5C199.184 214.681 208.35 225.015 206 245.5C197.652 261.596 185.485 265.429 169.5 257C157.919 244.952 157.586 232.619 168.5 220C171.767 217.87 175.1 216.037 178.5 214.5Z" fill="#DE5350"/>
<path fill-rule="evenodd" clip-rule="evenodd" d="M214.5 215.5C216.833 215.5 219.167 215.5 221.5 215.5C221.5 230.5 221.5 245.5 221.5 260.5C219.167 260.5 216.833 260.5 214.5 260.5C214.5 245.5 214.5 230.5 214.5 215.5Z" fill="#DC4D4A"/>
<path fill-rule="evenodd" clip-rule="evenodd" d="M231.5 215.5C238.508 215.334 245.508 215.5 252.5 216C263.326 220.043 265.326 226.876 258.5 236.5C264.96 241.842 266.127 248.176 262 255.5C260.786 257.049 259.286 258.215 257.5 259C248.916 260.41 240.25 260.91 231.5 260.5C231.5 245.5 231.5 230.5 231.5 215.5Z" fill="#DD504E"/>
<path fill-rule="evenodd" clip-rule="evenodd" d="M287.5 214.5C307.172 214.337 316.339 224.003 315 243.5C310.335 257.087 300.835 262.92 286.5 261C270.58 254.255 265.747 242.755 272 226.5C275.659 220.435 280.826 216.435 287.5 214.5Z" fill="#DE5250"/>
<path fill-rule="evenodd" clip-rule="evenodd" d="M318.5 215.5C321.572 215.183 324.572 215.516 327.5 216.5C330.922 221.678 334.589 226.678 338.5 231.5C342.535 226.597 346.202 221.43 349.5 216C352.227 215.182 354.894 215.348 357.5 216.5C352.833 223.5 348.167 230.5 343.5 237.5C348.5 244.833 353.5 252.167 358.5 259.5C355.5 260.833 352.5 260.833 349.5 259.5C345.833 254.167 342.167 248.833 338.5 243.5C334.147 248.527 330.147 253.86 326.5 259.5C323.554 260.655 320.554 260.821 317.5 260C323.027 252.639 328.361 245.139 333.5 237.5C327.986 230.456 322.986 223.122 318.5 215.5Z" fill="#DE514F"/>
<path fill-rule="evenodd" clip-rule="evenodd" d="M177.5 222.5C195.104 221.349 201.604 229.349 197 246.5C191.348 254.273 184.181 256.106 175.5 252C168.044 245.356 166.544 237.522 171 228.5C173.063 226.266 175.229 224.266 177.5 222.5Z" fill="#FEFBFB"/>
<path fill-rule="evenodd" clip-rule="evenodd" d="M239.5 222.5C243.846 222.334 248.179 222.501 252.5 223C254.478 225.497 254.978 228.331 254 231.5C252.416 232.861 250.582 233.528 248.5 233.5C245.5 233.5 242.5 233.5 239.5 233.5C239.5 229.833 239.5 226.167 239.5 222.5Z" fill="#FEFCFC"/>
<path fill-rule="evenodd" clip-rule="evenodd" d="M286.5 222.5C301.952 221.119 308.786 228.119 307 243.5C300.577 255.421 291.911 257.421 281 249.5C274.829 238.712 276.662 229.712 286.5 222.5Z" fill="#FEFBFB"/>
<path fill-rule="evenodd" clip-rule="evenodd" d="M56.4999 224.5C57.8219 224.33 58.9889 224.663 59.9999 225.5C59.9549 237.032 62.9549 247.698 68.9999 257.5C75.3079 265.852 81.3079 274.185 86.9999 282.5C82.6999 279.202 78.6999 275.535 74.9999 271.5C74.9769 274.051 75.4769 276.551 76.4999 279C73.6919 279.238 71.0259 278.904 68.4999 278C70.4139 279.413 71.7469 281.247 72.4999 283.5C71.2769 284.614 69.9439 284.781 68.4999 284C48.8879 271.148 42.3879 253.648 48.9999 231.5C51.3959 228.933 53.8959 226.6 56.4999 224.5Z" fill="#F6C3B6"/>
<path fill-rule="evenodd" clip-rule="evenodd" d="M239.5 222.5C239.5 226.167 239.5 229.833 239.5 233.5C242.5 233.5 245.5 233.5 248.5 233.5C245.375 234.479 242.042 234.813 238.5 234.5C238.183 230.298 238.517 226.298 239.5 222.5Z" fill="#E98885"/>
<path fill-rule="evenodd" clip-rule="evenodd" d="M239.5 240.5C244.628 240.112 249.628 240.612 254.5 242C257.649 246.61 256.983 250.443 252.5 253.5C248.167 253.5 243.833 253.5 239.5 253.5C239.5 249.167 239.5 244.833 239.5 240.5Z" fill="#FEFDFD"/>
<path fill-rule="evenodd" clip-rule="evenodd" d="M414.5 240.5C416.716 241.203 418.549 242.536 420 244.5C430.688 266.731 426.854 286.231 408.5 303C405.535 305.49 402.202 306.824 398.5 307C405.042 302.125 410.542 296.292 415 289.5C416.59 287.35 417.257 285.017 417 282.5C414.399 286.555 411.232 290.055 407.5 293C406.207 293.49 404.873 293.657 403.5 293.5C403.66 291.801 403.494 290.134 403 288.5C402.439 287.978 401.772 287.645 401 287.5C397.768 289.2 394.601 291.034 391.5 293C390.207 293.49 388.873 293.657 387.5 293.5C386.942 290.656 386.275 287.822 385.5 285C385.625 283.373 386.125 281.873 387 280.5C395.45 273.056 402.783 264.723 409 255.5C411.337 250.652 413.17 245.652 414.5 240.5Z" fill="#F6C3B6"/>
<path fill-rule="evenodd" clip-rule="evenodd" d="M439.5 249.5C441.427 252.137 441.927 255.137 441 258.5C437.361 260.626 433.528 260.959 429.5 259.5C433.358 258.504 436.524 256.504 439 253.5C439.49 252.207 439.657 250.873 439.5 249.5Z" fill="#E1615D"/>
<path fill-rule="evenodd" clip-rule="evenodd" d="M239.5 240.5C239.5 244.833 239.5 249.167 239.5 253.5C243.833 253.5 248.167 253.5 252.5 253.5C248.03 254.486 243.363 254.819 238.5 254.5C238.181 249.637 238.514 244.97 239.5 240.5Z" fill="#F3BDBB"/>
<path fill-rule="evenodd" clip-rule="evenodd" d="M88.5 248.5C88.897 247.475 89.563 247.308 90.5 248C102.134 259.726 104.634 273.226 98 288.5C96.374 291.128 94.374 293.461 92 295.5C94.514 290.795 96.847 285.795 99 280.5C101.364 267.76 97.864 257.093 88.5 248.5Z" fill="#F7C9BE"/>
<path fill-rule="evenodd" clip-rule="evenodd" d="M149.5 281.5C143.1 281.1 136.767 281.1 130.5 281.5C130.611 280.883 130.944 280.383 131.5 280C132.833 279.833 134.167 279.667 135.5 279.5C138.686 280.686 141.853 280.686 145 279.5C147.008 279.307 148.508 279.974 149.5 281.5Z" fill="#F1B1A7"/>
<path fill-rule="evenodd" clip-rule="evenodd" d="M149.5 281.5C152.648 282.474 154.481 284.474 155 287.5C152.96 285.63 151.127 283.63 149.5 281.5Z" fill="#EEA99F"/>
<path fill-rule="evenodd" clip-rule="evenodd" d="M130.5 281.5C128.471 283.858 126.471 286.192 124.5 288.5C125.092 284.911 127.092 282.578 130.5 281.5Z" fill="#EFAA9F"/>
<path fill-rule="evenodd" clip-rule="evenodd" d="M219.5 276.5C221.167 276.5 222.833 276.5 224.5 276.5C223.653 281.889 222.486 287.223 221 292.5C218.841 293.197 216.674 292.863 214.5 291.5C212.684 293.817 210.684 295.984 208.5 298C213.391 306.367 212.058 313.701 204.5 320C191.05 325.109 183.05 320.609 180.5 306.5C180.976 299.719 184.31 294.885 190.5 292C195.422 291.208 200.088 291.541 204.5 293C206.5 291 208.5 289 210.5 287C207.736 285.439 207.069 283.273 208.5 280.5C212.332 279.304 215.999 277.97 219.5 276.5Z" fill="#F5CAC0"/>
<path fill-rule="evenodd" clip-rule="evenodd" d="M145.5 286.5C145.897 285.475 146.563 285.308 147.5 286C149.597 288 150.597 290.166 150.5 292.5C149.291 290.059 147.624 288.059 145.5 286.5Z" fill="#F2B7AE"/>
<path fill-rule="evenodd" clip-rule="evenodd" d="M141.5 305.5C147.16 299.87 146.827 294.87 140.5 290.5C138.577 291.092 136.911 292.092 135.5 293.5C138.806 286.868 142.306 286.868 146 293.5C147.967 296.998 147.633 300.332 145 303.5C144.184 304.823 143.017 305.489 141.5 305.5Z" fill="#F1B6AC"/>
<path fill-rule="evenodd" clip-rule="evenodd" d="M253.5 283.5C254.552 283.351 255.552 283.517 256.5 284C260.411 290.37 265.411 291.87 271.5 288.5C273.671 288.727 275.838 289.06 278 289.5C278.689 288.643 279.522 287.977 280.5 287.5C281.833 288.833 283.167 288.833 284.5 287.5C284.742 291.08 284.909 294.747 285 298.5C285.333 296.5 285.667 294.5 286 292.5C286.64 296.483 287.14 300.483 287.5 304.5C286.749 308.827 286.583 313.16 287 317.5C287.333 315.5 287.667 313.5 288 311.5C288.497 313.81 288.663 316.143 288.5 318.5C283.768 317.873 279.102 318.54 274.5 320.5C272.329 320.273 270.162 319.94 268 319.5C267.311 320.357 266.478 321.023 265.5 321.5C264.28 320.289 263.113 320.289 262 321.5C261.311 320.643 260.478 319.977 259.5 319.5C257.733 322.14 255.399 323.64 252.5 324C246.486 316.655 240.486 309.322 234.5 302C236.161 299.342 238.161 297.009 240.5 295C241.448 294.517 242.448 294.351 243.5 294.5C243.5 293.5 243.5 292.5 243.5 291.5C245.672 290.199 248.005 289.199 250.5 288.5C250.5 287.5 250.5 286.5 250.5 285.5C252.179 285.715 253.179 285.048 253.5 283.5Z" fill="#F6CEC6"/>
<path fill-rule="evenodd" clip-rule="evenodd" d="M261.5 295.5C256.451 292.591 251.618 292.924 247 296.5C247.152 294.924 247.985 293.591 249.5 292.5C250.325 291.614 251.325 291.281 252.5 291.5C252.5 290.5 252.5 289.5 252.5 288.5C256.917 288.908 259.917 291.241 261.5 295.5Z" fill="#FEFCFC"/>
<path fill-rule="evenodd" clip-rule="evenodd" d="M141.5 305.5C138.547 304.213 136.214 302.213 134.5 299.5C134.833 297.5 135.167 295.5 135.5 293.5C136.911 292.092 138.577 291.092 140.5 290.5C146.827 294.87 147.16 299.87 141.5 305.5Z" fill="#FEFCFB"/>
<path fill-rule="evenodd" clip-rule="evenodd" d="M317.5 278.5C322.635 277.426 326.468 279.093 329 283.5C332.078 283.77 335.245 283.437 338.5 282.5C348.891 284.899 351.224 290.732 345.5 300C339.559 303.871 334.393 303.038 330 297.5C329.177 293.521 327.677 289.855 325.5 286.5C319.748 283.384 316.748 285.217 316.5 292C317.416 292.374 318.25 292.874 319 293.5C320.24 296.412 321.906 299.079 324 301.5C325.4 309.267 322.233 313.933 314.5 315.5C306.299 313.783 303.132 308.783 305 300.5C308.006 298.48 309.839 295.813 310.5 292.5C313.336 292.798 313.836 292.131 312 290.5C311.333 288.5 311.333 286.5 312 284.5C313.769 282.383 315.602 280.383 317.5 278.5Z" fill="#F6D0C8"/>
<path fill-rule="evenodd" clip-rule="evenodd" d="M335.5 286.5C340.42 285.784 343.42 287.784 344.5 292.5C343.132 297.078 340.132 298.578 335.5 297C331.713 293.589 331.713 290.089 335.5 286.5Z" fill="#FEFCFC"/>
<path fill-rule="evenodd" clip-rule="evenodd" d="M216.5 279.5C218.167 279.5 219.833 279.5 221.5 279.5C221.278 283.387 220.278 287.054 218.5 290.5C217.269 289.349 217.269 288.183 218.5 287C217.5 286.333 216.5 286.333 215.5 287C212.784 290.261 209.951 293.428 207 296.5C207.891 299.511 208.724 302.677 209.5 306C208.084 317.405 201.751 321.739 190.5 319C182.259 313.949 180.425 307.115 185 298.5C186.731 296.383 188.898 294.883 191.5 294C196.288 293.518 200.955 293.852 205.5 295C209.203 291.633 212.536 287.966 215.5 284C213.744 283.798 212.078 283.298 210.5 282.5C212.594 281.482 214.594 280.482 216.5 279.5Z" fill="#FDF8F7"/>
<path fill-rule="evenodd" clip-rule="evenodd" d="M124.5 288.5C122.452 296.023 123.452 303.023 127.5 309.5C120.846 303.267 119.846 296.267 124.5 288.5Z" fill="#F2BAB2"/>
<path fill-rule="evenodd" clip-rule="evenodd" d="M135.5 293.5C135.167 295.5 134.833 297.5 134.5 299.5C133.861 298.903 133.528 298.07 133.5 297C133.387 295.301 134.053 294.134 135.5 293.5Z" fill="#F2B9B0"/>
<path fill-rule="evenodd" clip-rule="evenodd" d="M156.5 305.5C157.66 300.155 157.827 294.822 157 289.5C160.312 295.041 160.145 300.374 156.5 305.5Z" fill="#F3BCB4"/>
<path fill-rule="evenodd" clip-rule="evenodd" d="M252.5 296.5C254.655 296.372 256.655 296.872 258.5 298C257.308 299.945 257.308 301.945 258.5 304C257.971 305.559 257.304 307.059 256.5 308.5C257.025 309.192 257.692 309.692 258.5 310C258.07 310.92 257.736 311.753 257.5 312.5C254.548 311.932 251.881 310.766 249.5 309C251.658 308.041 251.991 306.541 250.5 304.5C250.887 302.726 251.553 301.059 252.5 299.5C251.975 298.808 251.308 298.308 250.5 298C251.416 297.722 252.082 297.222 252.5 296.5Z" fill="#FEFBFA"/>
<path fill-rule="evenodd" clip-rule="evenodd" d="M246.5 311.5C243.616 308.761 240.949 305.761 238.5 302.5C240.42 300.952 242.253 299.285 244 297.5C244.5 297.833 245 298.167 245.5 298.5C244.006 303.04 244.34 307.373 246.5 311.5Z" fill="#FEFAF9"/>
<path fill-rule="evenodd" clip-rule="evenodd" d="M370.5 270.5C371.097 270.735 371.43 271.235 371.5 272C365.757 284.144 368.09 294.478 378.5 303C372.996 300.806 369.496 296.64 368 290.5C366.805 283.508 367.639 276.842 370.5 270.5Z" fill="#F7C8BD"/>
<path fill-rule="evenodd" clip-rule="evenodd" d="M311.5 299.5C319.619 299.469 321.619 302.969 317.5 310C308.352 310.536 306.352 307.036 311.5 299.5Z" fill="#FEFDFC"/>
<path fill-rule="evenodd" clip-rule="evenodd" d="M191.5 295.5C202.826 294.327 207.992 299.327 207 310.5C201.595 318.781 194.929 320.115 187 314.5C182.598 306.644 184.098 300.31 191.5 295.5Z" fill="#F5C8BE"/>
<path fill-rule="evenodd" clip-rule="evenodd" d="M192.5 297.5C201.495 296.663 205.661 300.663 205 309.5C202.185 315.169 197.685 317.002 191.5 315C184.631 308.724 184.965 302.891 192.5 297.5Z" fill="#FEFDFD"/>
<path fill-rule="evenodd" clip-rule="evenodd" d="M271.5 301.5C272.251 300.427 273.251 300.26 274.5 301C276.176 302.177 277.509 303.677 278.5 305.5C279.086 305.291 279.586 304.957 280 304.5C280.124 308.456 278.291 310.623 274.5 311C275.345 309.442 274.679 308.442 272.5 308C273.428 307.612 274.095 306.945 274.5 306C273.652 304.334 272.652 302.834 271.5 301.5Z" fill="#FEFAF9"/>
<path fill-rule="evenodd" clip-rule="evenodd" d="M134.5 299.5C136.214 302.213 138.547 304.213 141.5 305.5C140.749 306.573 139.749 306.74 138.5 306C136.077 304.429 134.744 302.263 134.5 299.5Z" fill="#EFAAA0"/>
<path fill-rule="evenodd" clip-rule="evenodd" d="M275.5 291.5C278.002 291.937 280.502 292.27 283 292.5C284.068 299.842 284.735 307.175 285 314.5C278.238 315.751 271.738 316.751 265.5 317.5C264.491 315.815 264.991 314.482 267 313.5C278.144 316.946 283.478 312.946 283 301.5C282.214 298.417 280.381 296.251 277.5 295C273.411 294.859 269.411 294.692 265.5 294.5C266.403 292.38 267.737 292.046 269.5 293.5C271.657 292.95 273.657 292.283 275.5 291.5Z" fill="#FEFBFA"/>
<path fill-rule="evenodd" clip-rule="evenodd" d="M367.5 307.5C370.091 308.254 371.924 309.921 373 312.5C375.194 322.307 371.527 325.973 362 323.5C360.314 329.081 356.814 331.414 351.5 330.5C349.862 329.295 349.529 327.962 350.5 326.5C355.049 327.999 358.049 326.332 359.5 321.5C361.766 320.686 364.1 320.186 366.5 320C369.539 318.315 370.705 315.815 370 312.5C368.906 310.922 368.072 309.255 367.5 307.5Z" fill="#F6C5B9"/>
<path fill-rule="evenodd" clip-rule="evenodd" d="M127.5 309.5C129.932 310.75 132.266 312.25 134.5 314C139.552 314.726 144.552 314.559 149.5 313.5C148.232 315.387 146.399 316.387 144 316.5C140.519 315.877 137.019 315.377 133.5 315C131.004 313.669 129.004 311.836 127.5 309.5Z" fill="#F1B4AB"/>
<path fill-rule="evenodd" clip-rule="evenodd" d="M156.5 305.5C155.569 309.429 153.236 312.095 149.5 313.5C151.862 310.808 154.196 308.141 156.5 305.5Z" fill="#EFACA1"/>
<path fill-rule="evenodd" clip-rule="evenodd" d="M261.5 295.5C264.831 298.305 267.831 301.472 270.5 305C265.607 310.562 260.107 315.395 254 319.5C250.82 317.476 248.32 314.809 246.5 311.5C253.24 316.182 259.073 315.182 264 308.5C265.034 303.742 264.201 299.409 261.5 295.5Z" fill="#FEFAF9"/>
<path fill-rule="evenodd" clip-rule="evenodd" d="M163.5 343.5C168.48 351.439 171.48 360.106 172.5 369.5C172.338 371.527 172.505 373.527 173 375.5C173.654 374.304 174.154 374.304 174.5 375.5C174.376 376.107 174.043 376.44 173.5 376.5C169.771 381.567 166.438 386.901 163.5 392.5C165.308 376.675 164.641 361.008 161.5 345.5C161.833 344.5 162.5 343.833 163.5 343.5Z" fill="#F6C3B6"/>
<path fill-rule="evenodd" clip-rule="evenodd" d="M163.5 343.5C162.5 343.833 161.833 344.5 161.5 345.5C158.861 347.156 156.195 348.822 153.5 350.5C152.479 349.998 152.312 349.332 153 348.5C161.06 344.773 166.727 338.773 170 330.5C169.451 335.575 167.284 339.908 163.5 343.5Z" fill="#EDA397"/>
<path fill-rule="evenodd" clip-rule="evenodd" d="M297.5 345.5C298.376 345.369 299.043 345.702 299.5 346.5C293.177 359.115 289.01 372.448 287 386.5C285.212 403.463 283.879 420.463 283 437.5C274.102 413.365 274.435 389.365 284 365.5C287.767 358.286 292.267 351.62 297.5 345.5Z" fill="#F6C3B7"/>
<path fill-rule="evenodd" clip-rule="evenodd" d="M263.5 372.5C265.981 369.642 266.481 366.642 265 363.5C262.425 366.726 260.925 370.393 260.5 374.5C259.5 374.5 258.5 374.5 257.5 374.5C259.297 368.905 262.13 363.905 266 359.5C266.333 360.167 266.667 360.833 267 361.5C269.427 359.254 272.094 358.588 275 359.5C276.63 367.607 274.464 374.44 268.5 380C269.802 381.923 269.635 383.757 268 385.5C266.155 382.188 265.322 378.855 265.5 375.5C267.527 372.801 269.527 370.801 271.5 369.5C270.902 368.205 270.402 366.872 270 365.5C267.852 366.977 266.518 368.977 266 371.5C265.329 372.252 264.496 372.586 263.5 372.5Z" fill="#F6D0C9"/>
<path fill-rule="evenodd" clip-rule="evenodd" d="M189.5 366.5C194.223 368.359 198.89 370.526 203.5 373C204.406 375.447 205.239 377.947 206 380.5C206.556 378.405 207.056 378.238 207.5 380C207.022 382.226 206.355 384.392 205.5 386.5C202.763 385.931 201.263 384.264 201 381.5C200.667 382.167 200.333 382.833 200 383.5C197.057 381.948 194.223 380.281 191.5 378.5C190.383 374.705 189.717 370.705 189.5 366.5Z" fill="#FEFDFC"/>
<path fill-rule="evenodd" clip-rule="evenodd" d="M256.5 374.5C256.5 375.167 256.5 375.833 256.5 376.5C256.5 377.167 256.167 377.5 255.5 377.5C252.654 377.191 251.154 375.525 251 372.5C250.586 372.957 250.086 373.291 249.5 373.5C248.059 372.135 246.726 370.635 245.5 369C244.668 368.312 244.002 368.479 243.5 369.5C244.436 372.768 246.436 375.101 249.5 376.5C248.624 377.251 247.624 377.751 246.5 378C248.286 378.196 249.619 379.029 250.5 380.5C249.652 382.409 249.318 384.409 249.5 386.5C250.833 386.5 252.167 386.5 253.5 386.5C253.5 386.833 253.5 387.167 253.5 387.5C252.833 387.5 252.5 387.833 252.5 388.5C249.641 386.999 248.308 387.999 248.5 391.5C248.497 394.602 248.997 394.935 250 392.5C250.692 393.025 251.192 393.692 251.5 394.5C250.637 395.726 250.637 397.06 251.5 398.5C249.496 397.327 247.996 395.66 247 393.5C246.271 389.623 246.438 385.789 247.5 382C240.275 377.201 236.941 370.368 237.5 361.5C245.91 361.4 251.41 365.4 254 373.5C254.671 374.252 255.504 374.586 256.5 374.5Z" fill="#F6D2CC"/>
<path fill-rule="evenodd" clip-rule="evenodd" d="M255.5 377.5C254.422 380.402 253.756 383.402 253.5 386.5C252.167 386.5 250.833 386.5 249.5 386.5C249.318 384.409 249.652 382.409 250.5 380.5C249.619 379.029 248.286 378.196 246.5 378C247.624 377.751 248.624 377.251 249.5 376.5C246.436 375.101 244.436 372.768 243.5 369.5C244.002 368.479 244.668 368.312 245.5 369C246.726 370.635 248.059 372.135 249.5 373.5C250.086 373.291 250.586 372.957 251 372.5C251.154 375.525 252.654 377.191 255.5 377.5Z" fill="#FEFCFC"/>
<path fill-rule="evenodd" clip-rule="evenodd" d="M181.5 366.5C184.097 366.721 184.097 367.221 181.5 368C182.308 368.308 182.975 368.808 183.5 369.5C182.306 372.03 181.64 374.363 181.5 376.5C180.115 375.386 178.615 374.386 177 373.5C176.626 375.491 175.793 377.158 174.5 378.5C173.662 378.158 173.328 377.492 173.5 376.5C174.043 376.44 174.376 376.107 174.5 375.5C174.154 374.304 173.654 374.304 173 375.5C172.505 373.527 172.338 371.527 172.5 369.5C175.285 367.905 178.285 366.905 181.5 366.5Z" fill="#FAE0DC"/>
<path fill-rule="evenodd" clip-rule="evenodd" d="M181.5 376.5C182.16 377.964 182.493 379.631 182.5 381.5C182.444 383.64 181.777 385.306 180.5 386.5C177.856 383.546 175.689 383.879 174 387.5C173.601 387.272 173.435 386.938 173.5 386.5C173.279 383.721 173.612 381.054 174.5 378.5C175.793 377.158 176.626 375.491 177 373.5C178.615 374.386 180.115 375.386 181.5 376.5Z" fill="#FEFBFA"/>
<path fill-rule="evenodd" clip-rule="evenodd" d="M217.5 374.5C218.931 374.881 219.764 375.881 220 377.5C224.933 404.904 224.6 432.237 219 459.5C215.14 445.782 213.64 431.782 214.5 417.5C214.153 403.056 215.153 388.722 217.5 374.5Z" fill="#F6C4B8"/>
<path fill-rule="evenodd" clip-rule="evenodd" d="M237.5 375.5C239.095 378.557 240.262 381.89 241 385.5C242.524 398.796 242.857 412.129 242 425.5C241.259 430.62 240.092 435.62 238.5 440.5C232.224 418.933 231.891 397.266 237.5 375.5Z" fill="#F6C4B7"/>
<path fill-rule="evenodd" clip-rule="evenodd" d="M263.5 372.5C263.5 373.5 263.5 374.5 263.5 375.5C262.849 376.091 262.182 376.757 261.5 377.5C259.929 376.691 258.262 376.357 256.5 376.5C256.5 375.833 256.5 375.167 256.5 374.5C256.833 374.5 257.167 374.5 257.5 374.5C258.5 374.5 259.5 374.5 260.5 374.5C260.925 370.393 262.425 366.726 265 363.5C266.481 366.642 265.981 369.642 263.5 372.5Z" fill="#F0A79A"/>
<path fill-rule="evenodd" clip-rule="evenodd" d="M184.5 364.5C186.553 364.402 188.22 365.069 189.5 366.5C189.717 370.705 190.383 374.705 191.5 378.5C190.743 382.468 190.41 386.802 190.5 391.5C189.262 390.588 187.928 390.421 186.5 391C185.023 392.812 183.69 394.645 182.5 396.5C181.719 394.348 181.386 392.348 181.5 390.5C181.167 389.833 180.833 389.167 180.5 388.5C181.239 388.631 181.906 388.464 182.5 388C181.584 387.722 180.918 387.222 180.5 386.5C181.777 385.306 182.444 383.64 182.5 381.5C182.493 379.631 182.16 377.964 181.5 376.5C181.64 374.363 182.306 372.03 183.5 369.5C182.975 368.808 182.308 368.308 181.5 368C184.097 367.221 184.097 366.721 181.5 366.5C182.5 365.833 183.5 365.167 184.5 364.5Z" fill="#F4BCAF"/>
<path fill-rule="evenodd" clip-rule="evenodd" d="M194.5 394.5C193.306 393.728 192.306 392.728 191.5 391.5C191.183 388.428 191.516 385.428 192.5 382.5C198.816 384.888 200.316 389.221 197 395.5C196.329 394.748 195.496 394.414 194.5 394.5Z" fill="#FEFDFD"/>
<path fill-rule="evenodd" clip-rule="evenodd" d="M180.5 386.5C180.918 387.222 181.584 387.722 182.5 388C181.906 388.464 181.239 388.631 180.5 388.5C179.417 388.461 178.417 388.127 177.5 387.5C176.479 388.901 175.479 390.235 174.5 391.5C173.661 390.359 172.994 389.026 172.5 387.5C172.624 386.893 172.957 386.56 173.5 386.5C173.435 386.938 173.601 387.272 174 387.5C175.689 383.879 177.856 383.546 180.5 386.5Z" fill="#F8D7D2"/>
<path fill-rule="evenodd" clip-rule="evenodd" d="M204.5 393.5C203.778 393.082 203.278 392.416 203 391.5C200.807 395.23 198.64 398.897 196.5 402.5C196.631 401.761 196.464 401.094 196 400.5C194.916 401.665 194.083 402.998 193.5 404.5C192.675 405.386 191.675 405.719 190.5 405.5C190.784 403.123 190.784 400.956 190.5 399C191.191 397.933 191.691 396.766 192 395.5C192.671 394.748 193.504 394.414 194.5 394.5C195.496 394.414 196.329 394.748 197 395.5C200.316 389.221 198.816 384.888 192.5 382.5C191.516 385.428 191.183 388.428 191.5 391.5C191.167 391.5 190.833 391.5 190.5 391.5C190.41 386.802 190.743 382.468 191.5 378.5C194.223 380.281 197.057 381.948 200 383.5C200.333 382.833 200.667 382.167 201 381.5C201.263 384.264 202.763 385.931 205.5 386.5C206.355 384.392 207.022 382.226 207.5 380C207.056 378.238 206.556 378.405 206 380.5C205.239 377.947 204.406 375.447 203.5 373C198.89 370.526 194.223 368.359 189.5 366.5C188.22 365.069 186.553 364.402 184.5 364.5C184.87 355.768 186.37 355.435 189 363.5C189.414 363.043 189.914 362.709 190.5 362.5C196.25 365.456 201.75 368.79 207 372.5C208.488 378.449 209.655 384.449 210.5 390.5C208.833 390.5 207.167 390.5 205.5 390.5C205.737 391.791 205.404 392.791 204.5 393.5Z" fill="#F7CDC5"/>
<path fill-rule="evenodd" clip-rule="evenodd" d="M173.5 376.5C173.328 377.492 173.662 378.158 174.5 378.5C173.612 381.054 173.279 383.721 173.5 386.5C172.957 386.56 172.624 386.893 172.5 387.5C172.994 389.026 173.661 390.359 174.5 391.5C173.559 393.05 172.893 394.716 172.5 396.5C171.844 397.278 171.011 397.944 170 398.5C167.747 397.623 165.581 396.623 163.5 395.5C163.5 394.5 163.5 393.5 163.5 392.5C166.438 386.901 169.771 381.567 173.5 376.5Z" fill="#F1ADA1"/>
<path opacity="0.981" fill-rule="evenodd" clip-rule="evenodd" d="M148.5 393.5C148.805 398.762 148.471 403.928 147.5 409C128.846 416.003 110.512 423.503 92.5 431.5C133.997 447.624 175.663 463.291 217.5 478.5C259.721 463.277 301.721 447.444 343.5 431C329.356 424.925 315.023 419.425 300.5 414.5C300.5 409.167 300.5 403.833 300.5 398.5C320.586 406.04 340.586 413.874 360.5 422C362.587 421.782 364.587 421.949 366.5 422.5C381.66 449.01 396.327 475.51 410.5 502C410.385 503.895 409.718 505.562 408.5 507C396.079 512.86 383.412 518.027 370.5 522.5C370.667 553.835 370.5 585.168 370 616.5C320.183 635.995 270.35 655.495 220.5 675C218.087 675.484 215.754 675.15 213.5 674C164.69 654.592 115.69 635.758 66.5 617.5C66.833 584.827 66.5 552.16 65.5 519.5C52.286 514.097 38.953 509.097 25.5 504.5C25.913 499.182 27.413 494.182 30 489.5C43.167 467.167 56.333 444.833 69.5 422.5C71.413 421.949 73.413 421.782 75.5 422C99.739 412.199 124.072 402.699 148.5 393.5Z" fill="#DD4E4C"/>
<path fill-rule="evenodd" clip-rule="evenodd" d="M163.5 395.5C165.581 396.623 167.747 397.623 170 398.5C171.011 397.944 171.844 397.278 172.5 396.5C170.458 410.461 166.292 423.794 160 436.5C160.54 422.801 161.707 409.135 163.5 395.5Z" fill="#F6C5B9"/>
<path fill-rule="evenodd" clip-rule="evenodd" d="M181.5 390.5C181.386 392.348 181.719 394.348 182.5 396.5C180.836 398.679 181.17 400.512 183.5 402C182.833 402.333 182.167 402.667 181.5 403C183.939 403.533 184.605 404.7 183.5 406.5C180.658 404.913 177.992 403.08 175.5 401C176.948 397.084 178.948 393.584 181.5 390.5Z" fill="#F9DAD5"/>
<path fill-rule="evenodd" clip-rule="evenodd" d="M204.5 393.5C206.463 410.659 205.63 427.659 202 444.5C201.667 444.833 201.333 445.167 201 445.5C196.982 431.126 195.482 416.792 196.5 402.5C198.64 398.897 200.807 395.23 203 391.5C203.278 392.416 203.778 393.082 204.5 393.5Z" fill="#F5C0B3"/>
<path fill-rule="evenodd" clip-rule="evenodd" d="M263.5 375.5C262.54 379.195 262.54 382.861 263.5 386.5C265.235 387.057 266.902 387.39 268.5 387.5C266.65 388.648 265.983 389.981 266.5 391.5C264.73 387.686 263.064 387.852 261.5 392C266.833 392.667 266.833 393.333 261.5 394C263.711 395.839 265.877 395.672 268 393.5C268.794 390.529 269.461 387.529 270 384.5C272.956 392.953 270.123 397.287 261.5 397.5C261.391 410.226 261.891 422.893 263 435.5C255.067 424.53 251.234 412.197 251.5 398.5C250.637 397.06 250.637 395.726 251.5 394.5C251.192 393.692 250.692 393.025 250 392.5C248.997 394.935 248.497 394.602 248.5 391.5C248.308 387.999 249.641 386.999 252.5 388.5C251.342 394.558 253.342 395.725 258.5 392C257.61 389.609 255.943 388.109 253.5 387.5C253.5 387.167 253.5 386.833 253.5 386.5C253.756 383.402 254.422 380.402 255.5 377.5C256.167 377.5 256.5 377.167 256.5 376.5C258.262 376.357 259.929 376.691 261.5 377.5C262.182 376.757 262.849 376.091 263.5 375.5Z" fill="#F6C4B8"/>
<path fill-rule="evenodd" clip-rule="evenodd" d="M253.5 387.5C255.943 388.109 257.61 389.609 258.5 392C253.342 395.725 251.342 394.558 252.5 388.5C252.5 387.833 252.833 387.5 253.5 387.5Z" fill="#F0A699"/>
<path fill-rule="evenodd" clip-rule="evenodd" d="M190.5 391.5C190.833 391.5 191.167 391.5 191.5 391.5C192.306 392.728 193.306 393.728 194.5 394.5C193.504 394.414 192.671 394.748 192 395.5C191.691 396.766 191.191 397.933 190.5 399C190.784 400.956 190.784 403.123 190.5 405.5C189.494 405.938 189.494 406.604 190.5 407.5C189.778 407.918 189.278 408.584 189 409.5C187.22 408.361 185.386 407.361 183.5 406.5C184.605 404.7 183.939 403.533 181.5 403C182.167 402.667 182.833 402.333 183.5 402C181.17 400.512 180.836 398.679 182.5 396.5C183.69 394.645 185.023 392.812 186.5 391C187.928 390.421 189.262 390.588 190.5 391.5Z" fill="#F0A99D"/>
<path fill-rule="evenodd" clip-rule="evenodd" d="M183.5 406.5C185.386 407.361 187.22 408.361 189 409.5C189.278 408.584 189.778 407.918 190.5 407.5C191.847 408.171 193.014 408.171 194 407.5C194.456 408.744 193.956 409.577 192.5 410C193.167 410.333 193.833 410.667 194.5 411C193.101 411.595 191.768 411.428 190.5 410.5C189.036 413.003 187.869 415.67 187 418.5C185.21 414.673 184.044 410.673 183.5 406.5Z" fill="#F7CBC0"/>
<path fill-rule="evenodd" clip-rule="evenodd" d="M76.5 440.5C119.834 456.5 163.167 472.5 206.5 488.5C197.144 508.211 186.977 527.544 176 546.5C132.429 529.296 88.929 511.963 45.5 494.5C55.857 476.445 66.19 458.445 76.5 440.5Z" fill="#FEFDFD"/>
<path fill-rule="evenodd" clip-rule="evenodd" d="M356.5 440.5C357.675 440.281 358.675 440.614 359.5 441.5C369.413 459.662 379.58 477.662 390 495.5C390.749 496.635 390.583 497.635 389.5 498.5C346.923 515.581 304.59 533.248 262.5 551.5C250.659 531.154 239.325 510.487 228.5 489.5C271.29 473.132 313.956 456.798 356.5 440.5Z" fill="#FEFDFD"/>
<path fill-rule="evenodd" clip-rule="evenodd" d="M209.5 515.5C209.56 514.957 209.893 514.624 210.5 514.5C211.833 561.833 211.833 609.167 210.5 656.5C209.893 656.376 209.56 656.043 209.5 655.5C210.833 608.833 210.833 562.167 209.5 515.5Z" fill="#E67D7B"/>
<path fill-rule="evenodd" clip-rule="evenodd" d="M209.5 515.5C210.833 562.167 210.833 608.833 209.5 655.5C167.077 639.457 124.744 623.124 82.5 606.5C81.167 579.5 81.167 552.5 82.5 525.5C115.548 538.794 148.715 551.794 182 564.5C192.166 548.845 201.333 532.512 209.5 515.5Z" fill="#FEFEFE"/>
<path fill-rule="evenodd" clip-rule="evenodd" d="M353.5 529.5C354.498 554.661 354.831 579.995 354.5 605.5C312.346 622.402 270.013 639.069 227.5 655.5C226.833 617.167 226.167 578.833 225.5 540.5C225.334 532.493 225.5 524.493 226 516.5C234.193 534.4 244.027 551.234 255.5 567C256.729 567.781 258.062 568.281 259.5 568.5C290.85 555.49 322.183 542.49 353.5 529.5Z" fill="#FEFEFE"/>
<path fill-rule="evenodd" clip-rule="evenodd" d="M353.5 529.5C353.56 528.957 353.893 528.624 354.5 528.5C355.829 554.33 355.829 579.997 354.5 605.5C354.831 579.995 354.498 554.661 353.5 529.5Z" fill="#E57977"/>
<path fill-rule="evenodd" clip-rule="evenodd" d="M225.5 540.5C226.167 578.833 226.833 617.167 227.5 655.5C227.44 656.043 227.107 656.376 226.5 656.5C225.5 617.839 225.167 579.172 225.5 540.5Z" fill="#F6D1D0"/>
</svg>
